<?xml version="1.0" encoding="UTF-8"?>
<svg xmlns="http://www.w3.org/2000/svg" id="Logo-Layer_1" viewBox="0 0 166.33 60">
  <defs>
    <style>.logo-cls-1{fill:#039ec4;}.logo-cls-2{fill:#ed1561;}.health{fill:#6e6e72;}</style>
  </defs>
  <g id="cohere">
    <path class="logo-cls-2" d="M85.19,26.38c-.32-3.34-1.64-6.06-4.1-8.27-2.4-2.21-5.3-3.28-8.64-3.28-3.66,0-6.75,1.33-9.28,4.04V1.7C63.17,.57,62.6,0,61.47,0,60.39,0,59.83,.57,59.83,1.7V38.55c0,1.14,.57,1.7,1.64,1.7,1.14,0,1.7-.57,1.7-1.7v-12.18c.57-4.73,4.48-8.2,9.28-8.2,2.59,0,4.8,.88,6.63,2.65,1.83,1.7,2.78,3.91,2.78,6.5v11.23c0,1.07,.57,1.64,1.7,1.64,1.07,0,1.64-.57,1.64-1.64v-12.18Z"></path>
    <path class="logo-cls-1" d="M31.5,27.58c0-2.59,.88-4.8,2.71-6.63s4.1-2.78,6.69-2.78,4.8,.95,6.63,2.78c1.83,1.83,2.78,4.04,2.78,6.63s-.95,4.86-2.78,6.69c-1.83,1.83-4.04,2.71-6.63,2.71s-4.86-.88-6.69-2.71c-1.83-1.83-2.71-4.1-2.71-6.69m-3.34,0c0,3.53,1.26,6.56,3.72,9.02,2.46,2.46,5.49,3.72,9.02,3.72s6.56-1.2,9.02-3.66c2.46-2.46,3.72-5.49,3.72-9.09s-1.26-6.56-3.72-9.02c-2.46-2.46-5.49-3.72-9.02-3.72s-6.56,1.26-9.02,3.72c-2.46,2.46-3.72,5.49-3.72,9.02"></path>
    <path class="logo-cls-1" d="M0,27.58c0,3.6,1.2,6.63,3.66,9.09,2.46,2.46,5.49,3.66,9.09,3.66,3.85,0,7-1.45,9.59-4.42,.32-.44,.5-.82,.5-1.14,0-.82-1.01-1.7-1.77-1.7-.44,0-.88,.25-1.26,.69-1.89,2.15-4.23,3.22-7.07,3.22-2.59,0-4.86-.88-6.69-2.71-1.83-1.83-2.71-4.1-2.71-6.69s.88-4.8,2.71-6.63c1.83-1.83,4.1-2.78,6.69-2.78,2.71,0,5.05,1.01,6.88,3.03,.38,.44,.76,.63,1.2,.63,.76,0,1.77-1.01,1.77-1.77,0-.38-.19-.76-.5-1.14-2.52-2.71-5.62-4.1-9.34-4.1s-6.56,1.26-9.02,3.72c-2.46,2.46-3.72,5.49-3.72,9.02"></path>
    <path class="logo-cls-2" d="M98.87,19.37c1.33-.69,2.71-1.01,4.29-1.01,.95,0,1.89,.13,2.84,.44,3.66,1.14,5.81,3.6,6.44,7.32h-18.49c.57-3.09,2.21-5.36,4.92-6.75m-6.63,1.77c-1.2,2.02-1.83,4.23-1.83,6.63,0,3.53,1.26,6.56,3.72,9.02,2.52,2.46,5.55,3.72,9.02,3.72,2.4,0,4.67-.63,6.75-1.96,.57-.38,.88-.82,.88-1.33,0-.82-.82-1.89-1.58-1.89-.32,0-.69,.13-1.07,.38-1.58,.95-3.22,1.45-4.99,1.45-3.85,0-6.63-1.7-8.33-5.11-.38-.76-.69-1.64-.88-2.59h20.32c1.07,0,1.64-.57,1.64-1.7,0-5.62-3.47-10.47-8.83-12.18-1.2-.38-2.52-.57-3.91-.57-4.8,0-8.46,2.02-10.92,6.12"></path>
    <path class="logo-cls-2" d="M149.29,19.37c1.33-.69,2.71-1.01,4.29-1.01,.95,0,1.89,.13,2.84,.44,3.66,1.14,5.81,3.6,6.44,7.32h-18.49c.57-3.09,2.21-5.36,4.92-6.75m-6.63,1.77c-1.2,2.02-1.83,4.23-1.83,6.63,0,3.53,1.26,6.56,3.72,9.02,2.52,2.46,5.55,3.72,9.02,3.72,2.4,0,4.67-.63,6.75-1.96,.57-.38,.88-.82,.88-1.33,0-.82-.82-1.89-1.58-1.89-.32,0-.69,.13-1.07,.38-1.58,.95-3.22,1.45-4.99,1.45-3.85,0-6.63-1.7-8.33-5.11-.38-.76-.69-1.64-.88-2.59h20.32c1.07,0,1.64-.57,1.64-1.7,0-5.62-3.47-10.47-8.83-12.18-1.2-.38-2.52-.57-3.91-.57-4.8,0-8.46,2.02-10.92,6.12"></path>
    <path class="logo-cls-2" d="M141.28,15.89l-8.35-4.02-.23-.11,.27,3.09c-2.79,.37-5.2,1.57-7.22,3.59-2.46,2.46-3.66,5.43-3.66,9.02v11.23c0,1.07,.57,1.64,1.64,1.64,1.14,0,1.7-.57,1.7-1.64v-11.23c0-2.59,.88-4.8,2.71-6.63,1.45-1.45,3.18-2.33,5.11-2.64l.3,3.49,7.72-5.78Z"></path>
  </g>
  <g id="health">
    <path class="health" d="M166.33,60v-9.44h-2.12v3.84h-3.31v-3.84h-2.13v9.44h2.11v-3.57h3.33v3.57h2.12Zm-19.55-7.5v-1.94h-8.23v1.94h3.06v7.5h2.13v-7.5h3.04Zm-18.81,7.5v-2.03h-4.93v-7.41h-2.1v9.44h7.03Zm-22.62-3.68h-2.32l1.17-2.96,1.15,2.96Zm3.48,3.68l-3.74-9.47h-1.62l-3.92,9.47h2.06l.71-1.76h3.74l.65,1.76h2.11Zm-21.25,0v-1.95h-4.66v-1.79h3.81v-1.89h-3.83c0-.63,.01-1.25,.01-1.87h4.51v-1.94h-6.61v9.44s6.76,0,6.76,0Zm-19.35,0v-9.44h-2.11v3.84h-3.31v-3.84h-2.13v9.44h2.11v-3.57h3.33v3.57h2.11Z"></path>
  </g>
</svg>
