<?xml version="1.0" encoding="utf-8"?>
<!-- Generator: Adobe Illustrator 23.0.2, SVG Export Plug-In . SVG Version: 6.00 Build 0)  -->
<svg version="1.1" id="Layer_1" xmlns="http://www.w3.org/2000/svg" xmlns:xlink="http://www.w3.org/1999/xlink" x="0px" y="0px"
	 width="136px" height="42px" viewBox="0 0 136 42" enable-background="new 0 0 136 42" xml:space="preserve">
<polygon fill="#231F20" points="23.52,27.3 23.52,4.54 17.53,4.54 17.53,13.03 5.9,13.03 5.9,4.54 -0.08,4.54 -0.08,27.3 5.9,27.3 
	5.9,17.46 17.53,17.46 17.53,27.3 "/>
<path fill="#231F20" d="M30.97,27.69c2.34,0,4.65-0.68,5.91-2.34h0.07v1.96h5.3v-7.94c0-5.21-1.8-8.07-8.52-8.07
	c-2.94-0.08-5.82,0.8-8.21,2.51l3.07,2.63c1.25-1.2,2.92-1.87,4.65-1.86c1.99,0,3.67,1.09,3.67,2.79c-4.79,0-12.61,0.1-12.61,5.51
	C24.33,26.02,27.52,27.69,30.97,27.69z M35.53,20.45h1.41v1.08c0,1.93-2.1,2.92-4.37,2.92c-1.27,0-2.72-0.54-2.72-1.7
	C29.86,20.6,33.77,20.45,35.53,20.45z"/>
<path fill="#231F20" d="M49.3,19.52c0-2.03,0.47-3.99,3.46-3.99c3,0,3,2.32,3,4.12v7.66h5.75v-8.62c0-4.18-1.07-7.4-6.9-7.4
	c-2.12-0.13-4.17,0.81-5.45,2.51h-0.07v-2.13h-5.53v15.64h5.75V19.52z"/>
<path fill="#231F20" d="M72.94,27.69c5.76,0,10.36-3.22,10.36-8.2s-4.61-8.2-10.36-8.2s-10.36,3.22-10.36,8.21
	S67.19,27.69,72.94,27.69z M72.94,15.53c2.88,0,4.65,1.61,4.65,3.96s-1.72,3.95-4.65,3.95s-4.6-1.61-4.6-3.95
	S70.07,15.53,72.94,15.53L72.94,15.53z"/>
<polygon fill="#231F20" points="95.46,27.3 102.83,11.67 97.04,11.67 92.66,22.29 92.59,22.29 87.86,11.67 81.65,11.67 89.36,27.3 
	"/>
<path fill="#231F20" d="M111.66,27.69c2.93,0.06,5.76-1.06,7.87-3.09l-4.04-2.47c-1.01,1.21-2.52,1.9-4.1,1.86
	c-1.98,0.15-3.8-1.11-4.34-3.02h13.35v-1.51c0-4.99-3.38-8.21-8.74-8.21c-5.76,0-10.36,3.22-10.36,8.21S105.9,27.69,111.66,27.69z
	 M111.12,14.76c2.07,0,3.57,1.36,3.53,2.96h-7.59C107.2,16.21,108.59,14.76,111.12,14.76z"/>
<path fill="#231F20" d="M127.35,20.78c0-3.12,0.54-5.25,4.91-5.25c0.83,0.01,1.65,0.12,2.46,0.33v-4.4
	c-0.63-0.13-1.28-0.18-1.93-0.17c-2.19-0.12-4.26,1-5.37,2.89h-0.07v-2.51h-5.76v15.64h5.76L127.35,20.78z"/>
<path fill="#231F20" d="M22.57,29.26l0.53,0.05c0.58,0.06,0.58,0.13,0.58,1.93v5.17c0,1.8,0,1.86-0.58,1.93h-0.53v0.33h3.59v-0.33
	h-0.53c-0.58-0.06-0.58-0.13-0.58-1.93v-5.14c0-1.8,0-1.86,0.58-1.93l0.53-0.05v-0.32h-3.59V29.26z"/>
<path fill="#231F20" d="M34.25,37.25v-2.2c0-1.69,0-3.29-2.31-3.29c-0.84,0.02-1.65,0.35-2.26,0.93v-0.93
	c-0.78,0.1-1.55,0.27-2.3,0.52l0.07,0.35l0.33-0.09h0.2c0.42,0,0.42,0.41,0.42,1.86v2.87c0,0.93-0.14,1.02-0.66,1.08h-0.35v0.33h3.3
	v-0.33h-0.34c-0.54-0.06-0.66-0.13-0.66-1.08v-4.01c0.35-0.5,0.92-0.79,1.53-0.79c1.76,0,1.76,1.43,1.76,2.79v1.98
	c0,0.93-0.14,1.02-0.65,1.08h-0.35v0.33h3.29v-0.33h-0.33C34.37,38.28,34.25,38.2,34.25,37.25z"/>
<path fill="#231F20" d="M37.58,33.28c-0.07-0.51,0.29-0.98,0.8-1.04c0.04-0.01,0.09-0.01,0.13-0.01c0.93,0,1.43,1.07,1.43,1.73h0.46
	c0.02-0.6-0.04-1.2-0.19-1.79c-0.46-0.28-0.99-0.42-1.53-0.41c-1.28,0-2.37,0.66-2.37,1.86c0,2.41,3.28,1.7,3.28,3.72
	c0.02,0.59-0.45,1.08-1.04,1.1c0,0,0,0,0,0c-1.19,0-1.69-0.93-1.99-1.93h-0.39c-0.01,0.67,0.08,1.34,0.28,1.98
	c0.58,0.29,1.22,0.44,1.86,0.43c1.4,0,2.56-0.67,2.56-2.07C40.86,34.48,37.58,34.97,37.58,33.28z"/>
<path fill="#231F20" d="M49.13,38.12c-0.08,0.01-0.16,0.01-0.23,0c-0.41,0-0.41-0.6-0.41-1.86v-4.49c-0.78,0.1-1.55,0.28-2.3,0.53
	l0.06,0.35l0.33-0.08h0.21c0.41,0,0.41,0.42,0.41,1.86v3.36c-0.45,0.31-0.99,0.48-1.53,0.47c-1.47,0-1.78-0.86-1.78-2.04v-4.46
	c-0.78,0.11-1.55,0.28-2.3,0.53l0.07,0.35l0.33-0.08h0.2c0.42,0,0.42,0.42,0.42,1.86v1.86c0,1.61,0.2,2.66,2.39,2.66
	c0.82,0,1.62-0.26,2.28-0.73c0.06,0.26,0.17,0.51,0.33,0.73c0.67-0.11,1.34-0.28,1.98-0.5l-0.08-0.33L49.13,38.12z"/>
<path fill="#231F20" d="M52.59,32.7c0-0.31-0.03-0.62-0.1-0.93c-0.73,0.09-1.45,0.28-2.14,0.55l0.11,0.35h0.14
	c0.11-0.04,0.23-0.07,0.35-0.08c0.41,0,0.41,0.32,0.41,1.86v2.88c0,1.02-0.13,1.02-0.64,1.08h-0.36v0.33h3.54v-0.33h-0.33
	c-0.79-0.06-0.93-0.06-0.93-1.08v-3.96c0.04-0.35,0.36-0.6,0.71-0.58c0.41,0.07,0.82,0.18,1.21,0.33c0.31-0.22,0.57-0.51,0.75-0.84
	c-0.33-0.25-0.71-0.4-1.12-0.45C53.56,31.92,52.99,32.22,52.59,32.7z"/>
<path fill="#231F20" d="M61.68,38.4c-0.81,0-0.81-1.11-0.81-2.14v-2.12c0-1.51-0.35-2.39-2.05-2.39c-1.18,0.03-2.28,0.61-2.96,1.58
	c0.08,0.23,0.22,0.43,0.39,0.6h0.1c0.29-0.55,0.65-1.48,1.86-1.48c1.21,0,1.37,0.84,1.37,1.86v0.34c-1.29,0.38-3.86,0.93-3.86,2.88
	c0,0.81,0.74,1.43,1.86,1.43c0.77,0.04,1.54-0.18,2.17-0.62c0.21,0.44,0.69,0.7,1.17,0.62c0.41,0.01,0.8-0.12,1.13-0.37l-0.07-0.2
	C61.89,38.42,61.78,38.42,61.68,38.4z M59.58,37.8c-0.25,0.37-0.67,0.6-1.12,0.6c-0.69,0.07-1.31-0.44-1.37-1.13
	c-0.01-0.07-0.01-0.14,0-0.21c0-1.4,1.44-1.76,2.29-1.76h0.2V37.8z"/>
<path fill="#231F20" d="M69.58,37.25v-2.2c0-1.69,0-3.29-2.31-3.29c-0.84,0.02-1.65,0.35-2.26,0.93v-0.93
	c-0.78,0.1-1.55,0.27-2.3,0.52l0.07,0.35l0.33-0.09h0.2c0.42,0,0.42,0.41,0.42,1.86v2.87c0,0.93-0.14,1.02-0.65,1.08h-0.36v0.33h3.3
	v-0.33h-0.34c-0.54-0.06-0.66-0.13-0.66-1.08v-4.01c0.35-0.5,0.92-0.79,1.53-0.79c1.76,0,1.76,1.43,1.76,2.79v1.98
	c0,0.93-0.13,1.02-0.65,1.08h-0.35v0.33h3.29v-0.33h-0.33C69.7,38.28,69.58,38.2,69.58,37.25z"/>
<path fill="#231F20" d="M75.76,38.4c-1.68,0-2.87-1.11-2.87-3.44c0-1.67,0.88-2.51,1.94-2.51c0.68-0.03,1.32,0.28,1.74,0.81h0.08
	c0.22-0.32,0.35-0.69,0.38-1.08c-0.51-0.31-1.11-0.46-1.71-0.43c-2.05-0.05-3.76,1.58-3.81,3.63c0,0.14,0,0.28,0.01,0.43
	c0,2.12,1.76,3.12,3.44,3.12c0.82,0.04,1.64-0.18,2.34-0.62l-0.12-0.35C76.75,38.21,76.26,38.36,75.76,38.4z"/>
<path fill="#231F20" d="M81.26,31.77c-1.95,0.05-3.49,1.67-3.44,3.62c0,0.07,0.01,0.14,0.01,0.21c-0.07,1.77,1.3,3.27,3.07,3.34
	c0.1,0,0.21,0,0.31,0c0.93,0.01,1.84-0.28,2.59-0.83l-0.18-0.34c-0.51,0.31-1.08,0.47-1.67,0.47c-1.49,0-2.72-1.17-2.79-2.66
	c1.61-0.35,3.17-0.88,4.65-1.58C83.68,32.7,82.56,31.72,81.26,31.77z M79.18,34.93c0-1.08,0.38-2.64,1.64-2.64
	c1.26,0,1.5,0.93,1.7,1.8c-1.1,0.34-2.21,0.61-3.34,0.82V34.93z"/>
<path fill="#231F20" d="M94.71,35.71h0.53c1.04,0.06,1.04,0.13,1.04,1.93v0.63c-0.57,0.13-1.15,0.2-1.73,0.2
	c-2.9,0-4.19-2.34-4.19-4.87c0-2.79,1.53-4.36,3.94-4.36c1.42-0.16,2.7,0.86,2.86,2.28c0,0.04,0.01,0.08,0.01,0.12l0.4-0.08
	c0-0.74-0.08-1.47-0.24-2.2c-0.94-0.43-1.98-0.64-3.01-0.6c-2.33,0-5.52,1.18-5.52,5.14c0,3.72,2.66,5.07,5.64,5.07
	c1.27-0.04,2.53-0.29,3.72-0.73l-0.1-0.33h-0.15c-0.23,0-0.23-0.08-0.23-0.53c0-1.43,0-1.51,0.28-1.56h0.53v-0.33h-3.72L94.71,35.71
	z"/>
<path fill="#231F20" d="M101.62,32.7c0-0.31-0.03-0.62-0.1-0.93c-0.74,0.09-1.46,0.28-2.15,0.55l0.12,0.35h0.13
	c0.11-0.04,0.23-0.07,0.35-0.08c0.42,0,0.42,0.32,0.42,1.86v2.88c0,1.02-0.13,1.02-0.65,1.08h-0.35v0.33h3.54v-0.33h-0.34
	c-0.78-0.06-0.93-0.06-0.93-1.08v-3.96c0.05-0.35,0.36-0.6,0.71-0.58c0.42,0.07,0.82,0.18,1.22,0.33c0.31-0.22,0.56-0.51,0.75-0.84
	c-0.33-0.24-0.72-0.4-1.13-0.45C102.59,31.92,102.02,32.22,101.62,32.7z"/>
<path fill="#231F20" d="M108.35,31.77c-1.95-0.05-3.57,1.48-3.62,3.43c0,0.1,0,0.2,0,0.3c-0.09,1.82,1.31,3.37,3.13,3.47
	c0.14,0.01,0.28,0.01,0.41,0c1.93,0.08,3.56-1.41,3.64-3.34c0.01-0.14,0-0.28-0.01-0.42c0.07-1.82-1.36-3.35-3.18-3.42
	C108.6,31.75,108.48,31.76,108.35,31.77z M108.52,38.42c-1.67,0-2.44-1.48-2.44-3.12c0-1.42,0.53-3.01,2.07-3.01
	c1.73,0,2.39,1.52,2.39,3.28c0,1.54-0.68,2.83-2.03,2.83V38.42z"/>
<path fill="#231F20" d="M120.35,38.12c-0.08,0.01-0.16,0.01-0.24,0c-0.41,0-0.41-0.6-0.41-1.86v-4.49c-0.78,0.1-1.55,0.28-2.3,0.53
	l0.07,0.35l0.32-0.08h0.21c0.41,0,0.41,0.42,0.41,1.86v3.36c-0.45,0.31-0.99,0.48-1.53,0.47c-1.47,0-1.78-0.86-1.78-2.04v-4.46
	c-0.78,0.11-1.54,0.28-2.29,0.53l0.06,0.35l0.33-0.08h0.2c0.42,0,0.42,0.42,0.42,1.86v1.86c0,1.61,0.2,2.66,2.39,2.66
	c0.82,0,1.62-0.26,2.28-0.73c0.06,0.26,0.17,0.51,0.33,0.73c0.67-0.11,1.34-0.28,1.98-0.5l-0.08-0.33L120.35,38.12z"/>
<path fill="#231F20" d="M125.7,31.77c-0.71,0.01-1.4,0.23-1.98,0.62c-0.02-0.22-0.08-0.43-0.18-0.62c-0.72,0.1-1.43,0.27-2.11,0.52
	l0.06,0.35l0.33-0.09h0.2c0.42,0,0.42,0.41,0.42,1.86v6.12c0,0.93-0.14,1.02-0.65,1.08h-0.35V42h3.29v-0.33h-0.34
	c-0.54-0.06-0.66-0.16-0.66-1.08v-1.74c0.39,0.11,0.8,0.16,1.21,0.16c2.09,0.11,3.88-1.49,4-3.58c0.01-0.12,0.01-0.25,0-0.37
	c0.13-1.69-1.14-3.16-2.83-3.29C125.96,31.76,125.83,31.76,125.7,31.77z M125.35,38.42c-0.59,0.04-1.18-0.15-1.64-0.53V32.8
	c0.38-0.21,0.8-0.33,1.24-0.33c1.42-0.02,2.6,1.11,2.62,2.53c0,0.11,0,0.22-0.01,0.32c0,1.87-0.73,3.08-2.2,3.08V38.42z"/>
<path fill="#231F20" d="M25.3,2.48c0.22-1.15,0.24-1.3,1.66-1.3h0.57v4.75c0,1.22,0,1.27-0.55,1.31H26.6v0.22h2.79V7.24h-0.35
	c-0.57,0-0.57-0.09-0.57-1.31V1.18h0.52c1.41,0,1.43,0.15,1.66,1.3h0.23c0,0,0-0.31,0-0.44c0-0.38-0.04-0.77-0.1-1.14H25.2
	c-0.06,0.38-0.1,0.76-0.1,1.14c0,0.13,0,0.4,0,0.44H25.3z"/>
<path fill="#231F20" d="M33.11,7.27h-0.23c-0.37,0-0.46-0.12-0.46-0.73V3.8c0.29-0.3,0.69-0.48,1.11-0.51c0.84,0,1.18,0.6,1.18,1.42
	v1.86c0,0.61-0.09,0.69-0.45,0.73h-0.23v0.22h2.22V7.31h-0.23c-0.36,0-0.45-0.12-0.45-0.73V4.79c0-1.09-0.12-2.02-1.58-2.02
	c-0.58-0.01-1.14,0.21-1.57,0.6V0.27c-0.52,0.02-1.03,0.07-1.54,0.16v0.22h0.15h0.22c0.36,0,0.36,0.46,0.36,1.25v4.65
	c0,0.61-0.09,0.69-0.44,0.73h-0.24v0.22h2.18V7.27z"/>
<path fill="#231F20" d="M38.77,7.64c0.63,0.01,1.24-0.19,1.75-0.57L40.4,6.85c-0.34,0.2-0.73,0.31-1.13,0.32
	c-1,0-1.83-0.79-1.86-1.8c1.08-0.24,2.13-0.6,3.14-1.07c-0.09-0.89-0.86-1.55-1.76-1.51c-1.31,0.03-2.36,1.12-2.32,2.44
	c0,0.05,0,0.1,0.01,0.15c-0.05,1.2,0.89,2.21,2.09,2.26C38.63,7.65,38.7,7.65,38.77,7.64z M38.51,3.14c0.76,0,1.01,0.6,1.14,1.22
	C38.92,4.6,38.17,4.8,37.4,4.94C37.4,4.2,37.66,3.14,38.51,3.14L38.51,3.14z"/>
<path fill="#231F20" d="M132.56,29.85c-1.35-0.01-2.45,1.09-2.46,2.44s1.09,2.45,2.44,2.46c1.35,0.01,2.45-1.09,2.46-2.44
	c0,0,0-0.01,0-0.01c0.01-1.34-1.07-2.44-2.41-2.45C132.58,29.85,132.57,29.85,132.56,29.85z M132.56,34.38
	c-1.16,0.05-2.13-0.85-2.18-2.01c-0.05-1.16,0.85-2.13,2.01-2.18c1.16-0.05,2.13,0.85,2.18,2.01c0,0.03,0,0.06,0,0.09
	c0.04,1.11-0.84,2.05-1.95,2.08C132.6,34.38,132.58,34.38,132.56,34.38z"/>
<path fill="#231F20" d="M133.71,31.68c0-0.55-0.33-0.82-1-0.82h-1.08v2.86h0.44v-1.23h0.47l0.78,1.23h0.47l-0.82-1.27
	c0.4,0.02,0.74-0.3,0.75-0.7C133.71,31.73,133.71,31.71,133.71,31.68z M132.51,32.14h-0.45v-0.93h0.59c0.3,0,0.64,0.05,0.64,0.44
	C133.29,32.04,132.9,32.14,132.51,32.14L132.51,32.14z"/>
</svg>
