<?xml version="1.0" encoding="UTF-8" standalone="no"?><!DOCTYPE svg PUBLIC "-//W3C//DTD SVG 1.1//EN" "http://www.w3.org/Graphics/SVG/1.1/DTD/svg11.dtd"><svg width="100%" height="100%" viewBox="0 0 299 184" version="1.1" xmlns="http://www.w3.org/2000/svg" xmlns:xlink="http://www.w3.org/1999/xlink" xml:space="preserve" xmlns:serif="http://www.serif.com/" style="fill-rule:evenodd;clip-rule:evenodd;stroke-linecap:round;stroke-linejoin:round;stroke-miterlimit:10;"><g><path d="M255.555,165.242l-0.477,-1.926l-0.957,0l-2.394,3.207l-2.872,0l-1.437,-1.281l-0,-4.492l-1.438,-1.281l-4.308,0.64l-0,-3.207l-6.703,5.133l-6.703,9.621l-2.395,-0.64l-1.434,-0.641l-0.48,3.207l2.395,2.566l1.914,-0.64l3.351,-3.211l4.789,-0.641l5.266,0l9.098,-1.281l3.351,-0l1.434,-5.133" style="fill-rule:nonzero;stroke:#000;stroke-width:0.75px;"/><path d="M144.004,97.242l-1.438,-3.207l-24.894,0.641l-54.102,-0.641l-0.957,3.848l-4.785,-0.641l0,-3.207l-56.973,-1.285l-0.48,-5.133l10.531,-40.414l8.621,-27.586l-0.48,-4.488l21.066,0.641l8.617,-0l37.825,0.64l60.8,3.207l36.387,0.645l3.828,-3.207l5.746,-1.285l0,-5.774l1.438,-1.926l7.66,0l1.438,-0.64l2.39,-5.133l2.395,-1.281l8.617,-0.641l5.746,1.922l-0.477,4.492l-0.96,0.641l-0,1.925l3.351,8.34l-0.476,2.567l4.308,1.922l0,3.851l4.309,0.641l1.437,1.926l0.477,3.847l-1.438,1.926l-13.402,3.207l-0.957,1.922l2.391,3.211l-0.958,2.566l-8.617,2.563l-1.914,1.926l-0.957,3.851l0.477,2.563l-3.828,-0l0.476,8.339l1.438,4.493l5.265,3.847l2.875,-0.64l2.391,-6.414l4.312,4.488l4.786,1.285l4.789,3.848l-0,5.773l0.957,1.926l4.789,2.566l1.433,1.922l0.481,6.418l1.914,1.281l-0.477,1.926l-1.918,0l-0.476,-1.926l-2.875,-0.64l-1.434,3.847l0.957,2.567l3.828,3.207l6.703,1.285l0.958,3.207l0.48,8.981l0.957,3.207l4.789,4.492l11.969,3.847l20.586,-6.414l3.351,-1.925l2.395,-5.774l-0.481,-7.055l-1.914,-1.285l-2.871,0.645l0,-8.985l-1.918,-2.566l-6.222,-3.207l-2.871,2.566l-2.875,-2.566l-0,-1.922l1.437,-1.926l5.746,0l6.703,3.207l7.18,10.266l4.309,12.188l-0.481,2.566l-1.914,2.566l2.395,1.282l-0,3.207l-1.915,5.132l1.915,8.981l-1.438,5.133l-1.434,1.285l-0.961,-0.645l-0.476,-5.773l-4.309,-2.563l-6.703,1.282l-4.789,-1.282l-5.265,3.848l-2.395,-1.285l-4.785,1.285l-7.66,0.641l-5.266,8.34l-14.363,0.64l-0,-5.133l1.433,-4.488l-0.476,-6.414l2.394,-3.852l-4.312,-1.921l-4.309,-0l-3.828,8.339l-5.746,5.129l-0.957,2.567l-5.266,-1.282l-3.832,3.207l0.481,5.133l-3.352,0l-0.957,3.207l-4.789,0.641l-1.437,-5.133l-2.391,0.641l-4.789,-23.094l-8.141,-1.281l-4.785,-1.926l-1.437,-2.566l-0.957,-12.829l-2.395,0l-0.957,-12.832l-33.035,1.926" style="fill-rule:nonzero;stroke:#000;stroke-width:0.75px;"/><path d="M288.113,179.355l3.352,-2.566l0.476,-1.926l-2.39,0l-0.481,-1.281l1.438,-2.566l-1.438,-2.567l0.481,-1.281l2.39,1.281l1.914,3.207l0.481,3.852l1.437,2.562l1.434,1.285l0,1.926l-5.742,1.922l-13.406,-1.922l-2.395,-1.926l4.789,-1.925l5.266,1.925l2.394,0" style="fill-rule:nonzero;stroke:#fff;stroke-width:0.75px;"/></g></svg>