<?xml version="1.0" encoding="UTF-8" standalone="no"?>
<!-- Created with Inkscape (http://www.inkscape.org/) -->

<svg
   version="1.1"
   id="svg2"
   xml:space="preserve"
   width="999.99994"
   height="806.24011"
   viewBox="0 0 999.99994 806.24011"
   sodipodi:docname="Paramount_Pictures_2022_(Blue).svg"
   inkscape:version="1.1.2 (b8e25be833, 2022-02-05)"
   xmlns:inkscape="http://www.inkscape.org/namespaces/inkscape"
   xmlns:sodipodi="http://sodipodi.sourceforge.net/DTD/sodipodi-0.dtd"
   xmlns="http://www.w3.org/2000/svg"
   xmlns:svg="http://www.w3.org/2000/svg"><defs
     id="defs6"><clipPath
       clipPathUnits="userSpaceOnUse"
       id="clipPath16"><path
         d="M 0,0 H 481.89 V 680.315 H 0 Z"
         id="path14" /></clipPath><clipPath
       clipPathUnits="userSpaceOnUse"
       id="clipPath94"><path
         d="m 93.061,169.426 h 296.123 v 89.667 H 93.061 Z"
         id="path92" /></clipPath><clipPath
       clipPathUnits="userSpaceOnUse"
       id="clipPath144"><path
         d="m 158.238,267.004 h 165.948 v 19.112 H 158.238 Z"
         id="path142" /></clipPath><clipPath
       clipPathUnits="userSpaceOnUse"
       id="clipPath180"><path
         d="M 81.208,11.689 H 400.284 V 40.457 H 81.208 Z"
         id="path178" /></clipPath><clipPath
       clipPathUnits="userSpaceOnUse"
       id="clipPath1510"><path
         d="M 0,0 H 481.89 V 680.315 H 0 Z"
         id="path1508" /></clipPath><clipPath
       clipPathUnits="userSpaceOnUse"
       id="clipPath1532"><path
         d="M 0,0 H 481.89 V 680.315 H 0 Z"
         id="path1530" /></clipPath><clipPath
       clipPathUnits="userSpaceOnUse"
       id="clipPath1552"><path
         d="M 0,0 H 481.89 V 680.315 H 0 Z"
         id="path1550" /></clipPath><clipPath
       clipPathUnits="userSpaceOnUse"
       id="clipPath1564"><path
         d="M 0,0 H 481.89 V 680.315 H 0 Z"
         id="path1562" /></clipPath><clipPath
       clipPathUnits="userSpaceOnUse"
       id="clipPath1576"><path
         d="M 0,0 H 481.89 V 680.315 H 0 Z"
         id="path1574" /></clipPath><clipPath
       clipPathUnits="userSpaceOnUse"
       id="clipPath1588"><path
         d="M 0,0 H 481.89 V 680.315 H 0 Z"
         id="path1586" /></clipPath></defs><sodipodi:namedview
     id="namedview4"
     pagecolor="#ffffff"
     bordercolor="#666666"
     borderopacity="1.0"
     inkscape:pageshadow="2"
     inkscape:pageopacity="0.0"
     inkscape:pagecheckerboard="0"
     showgrid="false"
     inkscape:zoom="0.5"
     inkscape:cx="457"
     inkscape:cy="420"
     inkscape:window-width="1366"
     inkscape:window-height="705"
     inkscape:window-x="-8"
     inkscape:window-y="-8"
     inkscape:window-maximized="1"
     inkscape:current-layer="g8" /><g
     id="g8"
     inkscape:groupmode="layer"
     inkscape:label="ONSCREEN FILMPASS MAY JUN 2022"
     transform="matrix(1.3333333,0,0,-1.3333333,-487.57613,36.698792)"><path
       id="path1414"
       style="fill:#1e439b;fill-opacity:1;fill-rule:nonzero;stroke:none;stroke-width:47.4464"
       d="m 715.92694,-489.6705 c 1.3285,3.22636 0,6.68995 -2.89423,7.78122 -2.70445,1.09126 -6.07315,-0.56936 -7.40165,-3.79572 -1.13871,-3.22636 0,-6.73739 2.89424,-7.82866 2.94168,-1.09127 6.26293,0.6168 7.40164,3.84316 m -20.16948,4.70668 c 0,16.74859 -18.83623,32.35847 -50.62535,33.9242 -28.94232,1.42339 -77.7647,-13.66457 -77.7647,-53.42468 0,-19.59538 17.93475,-26.28533 30.22338,-26.28533 12.33607,0 23.53343,8.01845 23.53343,15.942 0,8.20824 -4.6972,7.971 -6.0257,7.971 -3.36869,0 -6.50016,-4.83953 -4.27018,-10.67544 1.3285,-3.70083 -2.22998,-11.3397 -13.66457,-11.3397 -8.06589,0 -19.26325,6.45271 -19.26325,24.38747 0,17.83985 20.16473,50.62534 67.23159,50.62534 16.79604,0 36.48631,-9.10971 36.48631,-31.12486 0,-12.85798 -12.76309,-31.2672 -32.02634,-31.2672 0,0 4.6972,25.28895 17.2705,41.04117 1.09127,1.28105 -0.47446,2.46721 -2.22998,1.28105 -40.13968,-25.52618 -34.96802,-100.63389 -80.46915,-100.63389 -4.45997,0 -21.49324,1.04382 -21.49324,14.23393 0,0 -0.90148,3.08402 3.13147,5.59868 1.99275,1.18616 3.32125,3.41615 3.32125,5.74102 0,3.93805 -3.32125,7.06952 -7.16441,7.06952 -3.79572,0 -5.59868,-3.32125 -6.92718,-7.06952 -1.13872,-3.17891 -1.56574,-27.94595 29.13211,-28.18318 22.86918,-0.28468 55.797,15.56243 63.8629,57.12551 0,0 47.73111,5.07676 47.73111,35.06291 m 201.45756,-46.63035 c -1.3285,-4.98188 -3.79571,-7.73377 -6.50016,-8.87248 -2.46722,-1.13872 -4.03295,0.66425 -2.89423,2.18253 1.09126,1.51829 2.89423,4.74465 2.657,6.97463 -0.18979,2.94168 -2.89424,4.64975 -2.89424,4.64975 0,0 -1.56573,0.90148 -0.47446,2.56211 l 5.83591,9.53673 c 0,0 2.0402,3.79571 2.70445,0.80659 0.90148,-3.2738 3.13146,-12.81054 1.56573,-17.83986 m -34.06654,14.85073 c 0.90148,1.94531 2.94168,7.30675 8.73014,13.04777 2.0402,1.94531 4.03295,3.65338 6.31038,4.0804 2.46721,0.42701 2.657,-2.18254 2.46721,-3.79572 -0.47446,-1.61318 -1.37594,-4.50741 -3.60592,-7.06952 -2.0402,-2.5621 -4.6972,-5.50378 -6.92718,-6.92718 -2.27743,-1.3285 -4.03295,-2.22998 -5.83592,-2.22998 -1.56573,0 -2.04019,0.94893 -1.13871,2.89423 m 43.9354,30.31828 c -4.50741,-1.3285 -8.0659,-11.19736 -10.53311,-15.65733 -3.60593,-6.54761 -12.57331,-19.26325 -12.57331,-19.26325 0,0 -10.5331,-17.83986 -20.16473,-16.60625 -9.63163,1.18616 -2.46721,14.75584 -2.46721,14.75584 15.942,3.3687 22.63194,11.19736 24.90937,15.60988 2.46722,4.31762 0.42702,11.00757 -6.31037,10.5331 -0.66425,0 -1.56573,-0.0949 -2.46722,-0.23723 -0.66425,-0.0949 -1.3285,-0.23723 -1.75551,-0.37957 -1.37595,-0.33212 -2.70445,-0.75914 -4.27018,-1.3285 -2.0402,-0.80659 -3.79572,-1.75552 -5.17166,-2.70445 -0.66426,-0.37957 -1.32851,-0.80659 -1.99276,-1.3285 -4.27017,-2.98912 -9.44184,-10.29587 -11.90905,-9.86886 -2.657,0.47447 0.47446,5.50379 2.0402,8.87249 1.3285,3.36869 1.56573,5.40889 -1.3285,5.50378 -2.94168,0.0474 -7.21186,-3.13146 -9.20461,-4.74464 l -4.50741,-4.12784 4.03294,6.97463 h -11.19735 c -9.86886,-23.67577 -17.22306,-29.79636 -17.22306,-29.79636 0,0 -5.59868,-6.0257 -8.06589,-5.64613 -2.70445,0.42702 -0.47447,5.59868 -0.47447,5.59868 l 13.23756,29.84381 h -10.77034 l -9.3944,-19.83261 c 0,0 -7.40164,-15.70477 -14.13903,-15.60988 -3.13147,0.0474 -0.18979,6.68995 -0.18979,6.68995 l 12.95288,29.08466 h -10.7229 c 0,0 -9.44184,-19.35814 -12.5733,-24.67214 -3.13147,-5.36145 -10.7229,-11.90906 -13.66458,-11.10247 -1.09126,0.33213 -1.80296,0.99638 -1.80296,1.70807 -0.42702,1.04382 0.23723,2.27743 0.23723,2.27743 l 12.76309,28.46786 h 8.30313 l 1.56573,3.46359 -8.30313,-0.14234 7.87611,17.79241 h -11.00757 l -8.30313,-17.79241 h -5.59868 l -1.56573,-3.32125 h 5.59868 l -6.45271,-14.47116 c -1.80297,-3.60593 -15.94201,-22.82174 -25.3364,-21.20856 -9.44184,1.51829 -7.40164,9.53674 -6.97463,13.66458 0.90149,5.40889 6.97463,15.84711 8.54036,18.07709 1.3285,2.22998 9.63163,11.67182 13.90181,8.16078 3.55848,-3.03657 0,-7.8761 0,-7.8761 0,0 -6.7374,-4.36508 -4.27018,-8.96738 2.46721,-4.98188 8.30313,-0.85404 9.63163,1.28105 4.69719,6.92718 4.50741,21.49324 -10.96013,18.50411 -17.69752,-3.36869 -26.23788,-23.39109 -26.23788,-23.39109 0,0 -9.39439,-17.12816 -13.23755,-17.22305 -4.22274,-0.42702 -2.22999,4.69719 -2.22999,4.69719 l 13.90181,32.73804 h -10.29588 c 0,0 -3.36869,-7.21186 -9.44184,-20.6392 -6.02569,-13.37989 -17.46029,-19.78516 -17.46029,-19.78516 -0.66425,-2.98912 2.70445,-1.61318 2.70445,-1.61318 0,0 4.93443,2.79934 9.15716,7.21186 0,0 0.47447,0.6168 0.47447,0.28468 0,0 -1.37595,-9.48929 6.92718,-9.63163 0.66425,0 1.3285,0.0949 2.22998,0.23723 0.90148,0.0949 2.46721,0.7117 4.03295,1.66063 0.47446,0.18979 0.71169,0.37957 1.13871,0.56936 4.45997,2.84678 7.82866,8.16078 8.49291,9.01482 1.13872,1.47084 0.47447,2.13509 2.70445,-2.51466 2.22998,-5.21911 6.73739,-8.87248 14.80329,-8.96738 8.06589,-0.14234 15.46753,5.74102 18.36177,7.971 l 2.22998,1.85041 c 0,-10.5331 8.54036,-10.05864 8.54036,-10.05864 6.26293,-0.0949 15.2303,9.01482 16.79603,10.53311 0,0.0474 0,0.14234 0.23724,0.23723 v 0.0475 c 0,0 -1.80297,-8.82504 4.03294,-10.24843 4.6972,-1.09127 13.42734,4.88698 17.93476,10.05864 0,0 0,0.18979 0.18978,0.23723 v -0.14234 c 0,0 -2.22998,-5.55123 1.37595,-9.10971 3.79571,-3.84316 13.42734,2.13509 20.82898,10.0112 0,0 0.23723,0.18978 0.23723,-0.0949 l -4.50741,-10.39077 h 11.00758 l 9.63162,21.3509 c 0,0 1.99275,5.88336 4.93443,8.16079 3.32125,2.60955 1.09127,0.80659 2.89423,-2.37233 3.60593,-5.78846 9.86886,-1.75551 9.86886,-1.75551 -6.97462,-17.17561 -2.46721,-23.24876 5.59868,-25.71597 0,0 9.20461,-3.70082 22.15749,9.25205 0,0 -1.09127,-4.08039 1.61317,-6.78484 2.46722,-2.04019 7.3542,-4.27018 13.66458,-2.18253 8.06589,2.56211 12.09884,12.33607 13.00032,18.78879 0.66425,6.40526 -2.46721,14.85073 -2.46721,14.85073 0,0 -4.93443,13.14266 -0.23724,16.03689 5.59868,3.51104 5.83592,5.02933 4.6972,6.31038 -0.42702,0.66425 -1.80296,0.47446 -2.22998,0.33213 m -327.17637,72.11378 c 1.80296,2.0402 5.36145,5.55123 6.73739,7.30675 1.99275,3.17891 4.27018,5.59868 5.12422,6.31038 4.93443,3.93805 7.63887,4.22273 9.20461,6.45271 0.66425,1.09127 10.29587,15.51499 13.66457,21.3509 3.3687,5.50378 11.19736,16.32157 9.20461,18.02964 -1.13872,0.90148 -15.23031,-13.52223 -24.67215,-23.62832 -3.36869,-3.46359 -5.36144,-6.78484 -6.73739,-8.35057 0,0 -3.9855,-6.78484 -6.26293,-9.63163 -2.22998,-2.84679 -7.59143,-10.91268 -10.05864,-14.37627 -0.66425,-1.18616 -2.94168,-6.26293 -7.16442,-11.52948 -2.04019,-2.657 -4.27018,-6.07315 -8.30312,-11.3397 -5.59868,-7.06952 -9.63163,-12.85799 -8.73015,-13.61713 0.42702,-0.42702 8.73015,9.34695 17.22306,19.83261 3.60593,4.41252 7.63888,8.91993 10.77034,13.19011 m 223.86176,53.8944 c -2.89423,7.2593 -17.2705,33.40229 -18.83623,36.10674 -0.90149,1.47084 -3.55849,5.97825 -7.16442,11.38714 -3.13146,5.02932 -5.83591,10.48566 -7.40164,12.85798 -2.89423,4.74465 -8.49291,15.27776 -11.43459,19.64283 -3.13146,4.36507 -6.92718,13.9967 -8.49291,12.43096 -1.56573,-1.47084 4.45996,-15.942 7.16441,-25.09916 2.70445,-9.15716 0.66425,-12.90543 -0.90148,-15.56243 -1.56573,-2.56211 -1.56573,-4.27018 0,-8.87248 1.3285,-4.17529 6.50016,-28.42042 8.06589,-33.44974 1.56573,-5.02932 3.13147,-5.314 4.03295,-7.2593 2.94168,-7.54399 7.40164,-7.87611 9.63162,-8.49292 6.07315,-1.89785 6.7374,-10.24843 10.77034,-17.74496 3.60593,-7.02207 7.16442,-13.33245 10.29588,-20.92388 3.3687,-7.63888 20.16474,-49.05961 23.10641,-55.36999 0.90149,-2.27743 8.96738,-2.27743 8.0659,0 -2.0402,4.55486 -6.7374,15.98945 -9.44184,27.37659 -1.75552,7.44909 5.17166,2.18254 0.71169,14.04415 -2.04019,5.40889 -6.07314,10.86523 -8.06589,13.04777 -2.27743,2.18253 -4.50741,11.57693 -6.31038,15.75221 -1.80296,4.12784 -0.90148,4.31763 -4.45996,14.23393 -2.70445,7.16442 4.93443,4.79209 0.66425,15.89456 m 95.45748,-67.87687 c -1.56573,4.08039 -8.30313,14.37627 -10.53311,17.65007 -1.99275,3.27381 -5.59868,10.53311 -9.63162,15.13542 -3.60593,4.03294 -0.66425,5.17166 -4.27018,8.73014 -2.22999,2.08764 -9.15717,8.25568 -10.7229,9.53673 -1.61318,1.3285 -7.21186,6.35783 -10.58055,9.20461 -3.13147,2.75189 -10.96013,8.11334 -10.7229,11.57693 0.23724,3.51104 -1.56573,10.24843 -4.03294,12.47841 -2.0402,1.61318 -7.40165,10.53311 -13.90181,15.70477 -3.13146,2.70445 -10.10609,9.77397 -15.2303,15.942 -4.93443,5.88336 -8.73015,11.24481 -9.86886,10.48567 -1.56573,-1.09127 5.83591,-11.43459 6.50016,-12.6682 0.90148,-1.13872 9.39439,-15.942 10.29588,-19.83261 0.90148,-3.93805 16.84348,-30.84018 20.16473,-39.14331 2.0402,-4.88698 13.00032,-11.38714 17.50773,-19.02602 4.22274,-7.02207 5.36145,-5.59868 7.16442,-5.69357 4.03294,-0.14234 12.76309,-9.67907 14.56605,-12.28863 1.80297,-2.657 16.13179,-16.93837 19.69027,-20.44941 1.61318,-1.51829 13.00032,-19.88006 14.6135,-18.55156 1.51829,1.3285 -4.50741,10.24843 -5.40889,12.19374 -0.66425,1.9453 -4.03295,4.83953 -5.59868,9.01482 m 15.46754,23.19182 c -0.90148,1.56573 -7.82866,11.62438 -10.29588,14.89818 -4.50741,5.64613 -0.47446,7.78122 -2.70444,11.24481 -1.13872,1.51828 -6.7374,8.30312 -13.23756,15.08796 -3.32125,3.32125 -7.16441,6.59506 -10.29587,9.48929 -5.36145,4.64975 -9.20461,8.06589 -9.86886,7.49653 -0.90148,-0.90148 2.22998,-4.6023 3.60593,-6.31037 1.09126,-1.61318 3.36869,-4.60231 6.02569,-7.82866 4.50741,-5.314 0.23724,-9.2995 4.50741,-13.56968 0.90149,-0.66425 12.52586,-13.80692 15.46754,-16.22668 4.22273,-3.79572 19.50049,-21.9677 20.59175,-23.01152 1.80297,-1.66063 4.93443,-5.314 5.4089,-4.64975 0.66425,0.66425 -0.90148,2.60955 -1.80297,4.12784 -0.90148,1.56573 -6.26293,7.54398 -7.40164,9.25205 m -277.1963,8.22721 c -1.56573,-3.74827 -1.3285,-8.49291 -1.80296,-10.05864 -0.66425,-1.47084 -7.82867,-16.89093 -9.63163,-20.30708 -1.3285,-2.13509 -0.90148,-3.03657 -1.3285,-4.22273 -0.66425,-1.47084 0.18978,-1.89786 1.3285,-0.80659 1.3285,1.37595 8.96738,13.09522 11.43459,14.51861 2.22998,1.47084 4.45996,3.60593 4.6972,8.6827 0.47446,5.02932 3.79571,6.40527 6.26293,9.39439 2.46721,2.94168 5.83591,6.87973 7.63887,10.96013 1.80297,4.27018 3.79572,1.04382 7.82866,7.35419 3.84316,6.40527 12.76309,22.11004 14.80329,25.14661 1.80297,3.03658 0.42702,7.44909 0.23723,11.05502 0,1.94531 0.18979,6.59506 1.3285,11.67183 1.13872,4.45996 3.13147,9.01482 4.27018,11.9565 0.90148,1.85041 3.55849,7.49653 3.3687,9.72652 0,0.42701 -0.90148,1.09126 -1.80297,0.28467 -3.79571,-3.8906 -11.8616,-17.69752 -14.80328,-19.26325 -6.92718,-3.36869 -9.86886,-11.38714 -11.86161,-14.51861 -1.56573,-2.37232 -3.3687,-6.12059 -6.73739,-10.91268 -2.89424,-4.12784 -6.0257,-10.24843 -7.16442,-12.43096 -1.3285,-2.22998 -1.80296,-4.27018 0.42702,-4.27018 2.27743,0 0.47447,-3.60593 -2.22998,-7.54398 -1.56573,-2.27743 -5.36145,-13.42734 -6.26293,-16.41647 m -211.53993,-48.40485 -14.32882,11.71927 6.92718,17.03327 -15.65733,-9.96375 -14.56605,11.71927 4.45996,-17.9822 -15.46753,-9.53673 18.17198,-1.23361 4.6972,-17.83986 7.16441,17.41284 z m -41.67695,51.22791 10.53311,15.60988 17.93475,-4.88699 -11.86161,14.28138 10.05865,15.42009 -17.27051,-6.78484 -12.09884,14.23393 0.90149,-18.50411 -16.79604,-6.35782 17.69752,-4.64975 z m 8.51664,137.09648 15.46754,10.628 14.80328,-11.14991 -5.59867,17.55518 15.2303,10.53311 -18.83623,0.23723 -5.59868,17.69752 -6.07315,-17.60263 -18.12453,0.37957 14.56605,-10.77034 z m 23.52869,64.53663 17.2705,7.63888 12.28863,-13.94926 -1.99275,18.31433 16.79604,7.49653 -18.12454,3.70083 -2.46722,18.55155 -9.2046,-16.08434 -17.69752,3.84316 12.33607,-13.47479 z m -34.51254,-132.75037 13.23756,13.47479 16.79603,-8.25568 -8.73014,16.22668 12.76309,13.23755 -18.36177,-3.36869 -9.20461,16.32157 -2.46721,-18.31432 -17.93476,-3.08402 16.36902,-7.92356 z m 88.29307,195.80669 9.39439,-15.942 1.56574,18.26688 17.93475,4.22273 -17.22306,7.16441 1.3285,18.599002 -12.09884,-14.139042 -16.79604,7.25931 9.63163,-15.56243 -12.09884,-13.94925 z m -32.27307,-347.2652 -13.42734,-12.71564 -16.60625,8.63525 8.06589,-16.79604 -13.42734,-12.28863 18.12454,2.32488 7.87611,-16.6537 3.79571,18.40922 18.36177,2.22998 -16.13179,8.82504 z m 218.03535,299.64795 c -4.93443,0 -9.86886,-4.79209 -13.23756,-8.63525 -3.79571,-4.74464 -10.29587,-13.75947 -11.19735,-20.25963 -0.66425,-3.46359 0.90148,-4.88698 2.70444,-4.88698 4.27018,0 9.86886,7.3542 13.23756,13.66457 3.32125,6.92718 4.88698,10.86524 8.91993,19.64283 0.23723,0.47446 -0.18979,0.47446 -0.42702,0.47446 m 419.04215,-300.85783 -16.5588,-8.63525 -13.4748,13.00032 3.3687,-18.07709 -16.1318,-8.6827 18.3618,-2.41976 3.6059,-18.40922 8.0659,16.70114 17.9348,-2.5621 -13.2376,12.47841 z m 19.0498,66.17354 -14.5661,-11.71927 -15.7047,10.24843 6.7374,-17.22305 -14.3289,-11.57693 18.599,1.13871 7.1645,-17.2705 4.6972,17.93475 17.9347,0.85404 -15.2303,9.82141 z m -130.87155,231.95138 h -8.30313 c -4.69719,-9.96375 -8.49291,-18.40922 -12.76309,-27.85106 -1.56573,-3.22635 -3.13146,-8.63525 -2.22998,-11.90905 0.42702,-1.85041 2.89423,-2.27743 4.93443,-1.61318 6.26293,2.22998 10.53311,7.59143 14.32882,13.37989 0,0.56936 3.3687,0.14234 3.13147,-0.28467 -4.27018,-8.58781 -13.66458,-17.27051 -22.63195,-17.03327 -2.70445,0 -5.59868,1.66062 -7.16441,3.93805 -0.90149,1.18616 -1.3285,2.22998 -1.80297,3.65337 -0.42702,2.32488 -0.42702,4.93443 0,7.40165 -4.93443,-3.65338 -9.63162,-8.16079 -15.65732,-9.44184 -2.70445,-0.42702 -6.07314,0.6168 -6.73739,3.51103 -0.47447,2.27743 -0.23724,4.6972 0.66425,6.7374 3.79571,8.44546 7.16441,16.03689 11.00757,24.81448 0.18978,0.42702 0,1.89786 -0.47447,2.08765 -0.66425,0.56935 -2.46721,0.56935 -4.03294,-0.66425 -7.63888,-5.69358 -11.43459,-13.09522 -14.80329,-20.68665 -2.22998,-5.12421 -4.6972,-10.20098 -7.16441,-15.18286 h -10.96013 c 1.3285,3.03657 3.13147,7.16441 4.45997,10.43822 0,0.23723 0,0.23723 0,0 -4.45997,-4.45997 -10.29588,-9.48929 -16.13179,-11.05502 -2.22998,-0.61681 -4.45997,0.18978 -5.59868,2.27743 -1.3285,2.08764 -1.80296,5.12421 -0.66425,7.82866 0,0.14234 0,0.14234 -0.23723,0 -4.03295,-4.12784 -8.0659,-7.82866 -13.42734,-9.63163 -6.26293,-1.9453 -11.86161,2.41977 -7.82866,11.43459 0.85403,2.41977 4.03294,9.25206 7.35419,17.41284 -2.657,-1.18616 -6.26293,-1.18616 -8.06589,-0.6168 -0.18979,0 -0.18979,0 -0.18979,-0.18978 -2.46721,-11.4346 -9.2046,-21.92026 -19.73771,-26.85469 -5.17166,-2.46721 -10.77034,-3.13146 -15.89456,0.37957 -2.46721,1.61318 -4.03295,5.59868 -4.03295,9.01483 -5.40889,-5.26656 -11.43459,-12.0514 -19.50048,-10.86524 -1.37595,0.28468 -2.22998,1.37595 -2.94168,2.46722 -1.75552,3.13146 -0.66425,6.40527 0.47447,9.10971 3.79571,8.11334 7.16441,15.79967 10.96012,24.95683 0.66425,1.28105 -1.09127,2.22998 -2.46721,1.61318 -3.79572,-1.85041 -6.26293,-3.70082 -8.25568,-7.02208 -1.13872,-1.80296 -2.46722,-3.84316 -3.3687,-5.83591 -3.60593,-7.82866 -7.40164,-16.03689 -10.53311,-23.913 h -11.19736 c 4.88699,11.14991 9.63163,22.01515 14.56606,33.11761 0.42702,0.99638 0.18979,2.46722 -0.47446,2.79934 -0.90149,0.52191 -2.70445,-0.33212 -3.79572,-0.99637 -2.70445,-1.80297 -4.93443,-4.27018 -6.73739,-7.3542 -1.99275,-3.08402 -3.55849,-6.12059 -4.93443,-9.48929 l -8.25568,-18.07709 h -10.77034 c 0.90148,2.37232 2.89423,7.11697 4.27018,9.48929 0,0.23723 -0.23724,0.42702 -0.23724,0.23723 -6.07314,-4.88698 -13.47478,-11.29225 -19.07346,-10.24843 -1.75552,0.23723 -3.55848,1.85041 -4.03295,3.51104 -0.18978,2.04019 -0.18978,3.93805 0.23723,5.69357 0,0.23723 -0.23723,0.23723 -0.42701,0 -4.74465,-4.45997 -8.96738,-8.20824 -14.80329,-9.63163 -3.60593,-0.80659 -6.7374,1.42339 -7.82866,3.93806 -1.56574,2.84678 -1.80297,7.35419 0.66425,12.52585 1.3285,3.27381 2.89423,6.7374 4.93443,9.58418 -1.13872,-0.6168 -3.60593,-0.80659 -5.17167,-0.6168 -1.56573,0.23723 -2.89423,1.28105 -3.55848,2.32488 -0.90148,0.94892 -1.13871,2.79934 -1.13871,4.03294 0.23723,0.23723 -0.47447,0.23723 -0.90149,0 -3.36869,-2.60955 -4.69719,-5.74102 -6.26292,-9.20461 l -9.44184,-21.35089 h -11.19736 l 4.03294,9.06227 c 0.23724,0.14234 0,0.37957 -0.18978,0.14234 -5.59868,-5.07677 -12.57331,-10.86524 -18.17199,-9.77397 -1.56573,0.28468 -3.36869,1.85041 -3.60593,3.41615 -0.42701,1.89785 -0.18978,3.9855 0,5.78846 h -0.42701 c -4.50741,-4.50741 -8.96738,-8.20823 -14.80329,-9.44184 -3.3687,-1.04382 -6.26293,0.99637 -7.59143,3.89061 -1.56573,4.12784 -1.13871,8.39802 0.42702,12.33607 4.27018,11.10247 12.09884,19.02602 22.63195,25.05172 6.97462,3.84316 17.2705,5.02932 24.67214,1.18616 -4.93443,-11.48204 -8.73014,-19.69027 -13.47478,-30.55551 -0.42702,-1.04382 -0.90149,-2.84678 0.23723,-3.51103 0.90148,-0.37957 1.80296,-0.37957 2.46721,0 5.83591,2.89423 11.19736,9.86886 15.23031,17.8873 l 7.40164,16.32158 h 10.53311 l -2.89423,-6.16804 c -0.23724,-0.33212 -0.23724,-0.52191 0,-0.33212 3.32125,2.46721 6.68994,6.12059 10.96012,8.39801 1.56574,0.75915 5.36145,0.75915 4.93443,-1.89785 0,-2.37232 -1.80296,-4.22274 -2.94168,-6.50016 -0.66425,-1.47084 -1.3285,-3.32125 -1.09126,-4.31763 0.42701,-1.04382 1.80296,-1.66062 3.36869,-0.42702 1.56573,0.99638 2.89423,1.85041 4.27018,3.08402 2.657,2.51466 6.0257,4.88698 9.63163,6.83229 7.35419,3.46359 17.46029,5.64612 24.86193,0.94893 -5.17166,-11.48204 -8.96738,-20.06985 -13.90181,-30.93508 -0.90148,-1.85041 -0.23723,-2.41977 0.23724,-2.89423 0.66425,-0.37957 1.99275,-0.56936 3.55848,0.33212 4.03295,1.70808 11.19736,9.67908 14.13904,15.89456 2.657,5.78846 5.12421,11.48204 8.06589,17.9822 h 10.77034 l -3.17891,-6.31038 0.47446,-0.18978 c 2.89424,2.60955 10.29588,8.63525 15.89456,7.35419 3.13146,-0.66425 4.50741,-4.31762 4.27018,-7.02207 3.60593,2.56211 7.16441,5.59868 12.33607,6.87973 7.40164,1.80297 10.29588,-3.36869 8.06589,-8.25568 -2.94167,-6.78484 -8.73014,-20.06984 -11.90905,-26.90212 -0.42702,-0.7117 -0.42702,-2.22999 0,-2.60956 0.7117,-0.6168 2.27743,0 2.94168,0.37957 3.55848,3.13147 5.59868,5.17167 8.49291,9.25206 0.66425,7.16441 4.6972,13.75946 10.10609,19.26325 5.59868,6.35782 14.56606,11.24481 23.2962,8.35057 3.13146,-0.94893 5.17166,-4.08039 5.83591,-7.11696 0.42702,-1.66063 0.90148,-2.46722 0.90148,-4.31763 4.45997,-3.2738 10.53311,2.08765 13.00033,6.12059 0.66425,1.66063 1.3285,3.51104 1.75551,4.74465 2.70445,-0.18979 7.63888,0 10.77034,0 l -13.42734,-30.55551 c -0.90148,-1.80296 -1.13871,-2.79934 -1.13871,-4.22273 0,-1.09127 1.3285,-1.3285 2.70445,-1.09127 3.55848,0.61681 9.63162,7.87611 12.52585,13.94925 3.60593,7.63888 6.7374,13.94926 10.1061,21.54068 h 10.72289 c -4.22273,-10.24843 -9.15716,-21.11366 -12.52586,-29.08466 -0.90148,-1.66062 -1.80296,-3.32125 -1.3285,-5.59868 0.42702,-1.04382 1.99275,-0.80659 2.657,-0.42702 4.74464,2.70445 12.81054,11.67183 15.70477,17.22306 2.89423,6.59505 4.93443,11.48204 8.06589,17.8873 h 11.19736 l -2.70444,-6.40526 c 4.03294,3.2738 8.54035,6.78484 13.9018,7.68632 2.46722,0.33212 5.59868,0.18978 6.97463,-2.32488 1.56573,-2.84678 0.66425,-5.88335 -0.7117,-8.5878 -2.89423,-6.97463 -6.45271,-14.56606 -9.63163,-21.3509 -0.42701,-1.66062 -0.66425,-3.22635 0.47447,-3.8906 1.80296,-1.04383 9.39439,3.74826 13.42734,12.33607 3.3687,7.59143 5.59868,12.05139 8.73014,19.40559 h -5.59868 l 1.56574,3.32125 h 5.59868 l 8.30312,17.83986 h 11.00757 l -7.8761,-17.83986 h 8.30312 z M 528.14819,-253.4442 c -30.50806,0.23723 -30.03359,25.00427 -28.89488,28.18318 1.09127,3.74827 3.13147,7.06952 6.92718,7.06952 3.79572,0 6.92718,-3.13146 6.92718,-7.06952 0,-2.32487 -1.09127,-4.55485 -3.13146,-5.74102 -4.03295,-2.51466 -3.13147,-5.59867 -3.13147,-5.59867 0,-13.19011 16.79604,-14.23393 21.30345,-14.23393 45.69092,0 40.5667,75.1077 80.65894,100.63388 1.80296,1.23361 3.13146,0 2.04019,-1.23361 -12.5733,-15.75221 -17.2705,-41.08861 -17.2705,-41.08861 19.50049,0 32.26358,18.40922 32.26358,31.2672 0,21.9677 -19.73772,31.12486 -36.77099,31.12486 -46.82963,0 -67.18415,-32.78548 -67.18415,-50.62534 0,-17.93475 11.43459,-24.38747 19.50048,-24.38747 11.38715,0 14.99308,7.63888 13.42735,11.3397 -2.22999,5.83591 0.90148,10.67545 4.45996,10.67545 1.37595,0 6.07314,0.23723 6.07314,-7.971 0,-7.92356 -11.19735,-15.94201 -23.77066,-15.94201 -12.33607,0 -30.22338,6.68995 -30.22338,26.28533 0,39.76011 49.05961,54.84808 77.71726,53.42468 32.07379,-1.51828 50.67279,-17.17561 50.67279,-33.9242 0,-29.9387 -47.49388,-35.06291 -47.49388,-35.06291 -8.30312,-41.56308 -41.23095,-57.36274 -64.10013,-57.12551 m 213.5564,217.636794 C 569.37914,-35.902299 429.98152,-175.48971 429.98152,-347.67282 c 0,-46.92452 12.33607,-99.7324 34.541,-143.05099 40.09224,37.38779 145.42332,156.19366 157.52216,170.04801 18.36177,20.97133 26.19043,7.59143 36.05929,19.35815 5.36145,6.45271 8.54036,8.91993 10.77034,10.20098 3.79572,2.22999 8.0659,7.63888 10.29588,9.20461 2.22998,1.61318 6.92718,8.06589 10.77034,11.3397 3.79571,3.22636 11.43459,8.11334 19.02602,14.56605 7.40164,6.50017 20.40197,21.58813 34.30377,21.58813 16.79604,0 23.72322,-11.29225 25.09916,-12.6682 1.32851,-1.3285 11.62438,-10.39077 13.19011,-12.14628 2.0402,-2.0402 13.00033,-10.7229 18.83624,-10.7229 6.07314,0 10.29587,-6.50016 13.47479,-9.67907 7.16441,-6.50016 36.29652,-37.198 45.92814,-43.69817 4.27018,-2.94167 8.25568,-2.41976 11.62438,-4.88698 3.17891,-2.41977 4.74464,-3.9855 6.73739,-4.55486 1.80297,-0.52191 8.0659,1.04383 15.23031,-8.01844 3.3687,-2.32488 4.27018,-2.70445 4.27018,-2.70445 0,0 10.05864,-9.01482 13.66457,-15.37264 3.13147,-5.50379 77.10046,-103.71791 103.52811,-138.87572 24.6722,44.50476 38.7637,95.69946 38.7637,150.16797 0,172.278 -139.82459,311.770514 -311.91281,311.770514 M 729.15026,-176.97953 c -4.6972,0 -9.86886,-4.79209 -13.23756,-8.63525 -3.79571,-4.74464 -10.05864,-13.75947 -11.19735,-20.25963 -0.66425,-3.46359 0.90148,-4.88698 2.94168,-4.88698 4.03294,0 9.82141,7.3542 13.1901,13.66457 3.13147,6.92718 4.93443,10.86524 8.96738,19.64283 0.23723,0.47446 -0.23723,0.47446 -0.66425,0.47446 m 102.18064,-0.85403 c -4.6972,1.89786 -10.77034,-7.16441 -15.70477,-16.36902 -4.93443,-9.20461 -8.49291,-20.73409 -4.22273,-22.77429 4.45996,-2.32487 10.29587,7.73377 15.2303,16.93838 4.93443,9.25205 8.73015,20.78154 4.6972,22.20493 m -138.93264,157.669243 13.90181,12.24118 15.65732,-9.536733 -7.3542,17.17560885 13.85436,12.47841215 -18.36177,-1.660625 -6.92718,16.701145 -4.27018,-17.6975203 -18.17198,-1.8029645 15.942,-9.6790725 z m 343.29864,-157.356103 -2.23,-18.21943 12.7631,13.75947 17.0333,-7.59143 -9.2046,16.17923 12.336,13.14266 -17.6975,-3.55848 -9.2046,16.17923 -2.23,-18.599 -18.1245,-3.55848 z m -519.4293,95.661505 6.50016,-17.507734 4.6972,17.792413 18.599,0.569357 -15.65732,10.343322 4.88698,18.077092 -14.56606,-11.434591 -14.99307,10.058644 6.26293,-16.985823 -14.32882,-11.387144 z m 531.3052,-144.218185 15.2303,-10.67545 -5.8359,-17.55518 15.0405,11.10247 15.2303,-10.7229 -5.8359,17.69752 14.8033,10.58056 -18.172,-0.14234 -5.8359,17.50773 -5.7885,-17.74496 z m 39.2144,-149.08618 10.1061,-15.60988 1.3285,18.45667 17.4603,4.36507 -16.7961,6.6425 1.1388,18.45666 -12.0989,-14.37627 -17.2705,7.06952 9.8689,-15.46754 -11.9091,-14.23393 z m -135.79639,295.63873 4.6972,-17.792413 6.73739,17.412842 18.599,-0.521911 -14.32882,11.57693 6.50016,16.89093 -15.27775,-9.963751 -14.32882,11.529483 4.69719,-18.171984 -15.65732,-10.153537 z m 141.62289,-194.75338 -9.2046,-16.32157 -18.3618,3.55848 12.7631,-13.42734 -8.9674,-15.98945 16.8435,7.92355 13.0003,-13.37989 -2.2774,18.45666 16.6063,7.59143 -17.9348,3.32125 z m -112.49078,154.125 17.93475,-4.22273 1.3285,-18.40922 9.63163,15.89456 18.172,-4.12784 -11.8616,14.13903 9.6316,15.3252 -16.8435,-6.87973 -11.86159,13.996697 1.13871,-18.693897 z m -409.40579,76.346055 2.89423,-18.456663 8.30313,16.558806 18.17198,-2.941679 -13.23755,13.095216 8.06589,16.796037 -16.36902,-8.492912 -12.76309,12.857984 2.94168,-17.887306 -16.36902,-8.540358 z m 185.09803,26.778768 15.89456,9.3469475 13.66457,-12.1937335 -4.03295,18.1719842 15.942,9.5367332 -18.40921,1.8978574 -3.79572,17.7924132 -7.16441,-16.653699 -18.36177,1.755518 13.90181,-12.52585833 z m 140.49838,-27.139361 8.06589,-16.463913 3.13147,18.266877 18.36177,2.989126 -16.32157,8.635251 3.13146,17.792413 -13.00032,-12.715645 -16.36902,8.587805 8.30312,-16.938377 -13.47478,-12.952877 z m -77.75522,18.086581 17.46029,6.215483 11.00757,-14.803288 -0.47446,18.741342 17.50773,6.357822 -17.69752,5.3614471 L 846.1247,13.916457 835.59159,-1.0291698 818.1313,4.2848308 829.32866,-10.755689 Z m -187.55575,-9.456074 10.96013,14.660948 17.50773,-6.262929 -10.53311,15.372644 11.19736,14.8981807 -17.93475,-5.1242149 -10.05865,14.9930732 -0.47446,-18.1245378 -17.69752,-5.1716612 17.46029,-6.547608 z" /></g></svg>
