<?xml version="1.0" encoding="utf-8"?>
<!-- Generator: Adobe Illustrator 25.2.0, SVG Export Plug-In . SVG Version: 6.00 Build 0)  -->
<svg version="1.1" id="Layer_1" xmlns="http://www.w3.org/2000/svg" xmlns:xlink="http://www.w3.org/1999/xlink" x="0px" y="0px"
	 viewBox="0 0 640.42 168" style="enable-background:new 0 0 640.42 168;" xml:space="preserve">
<style type="text/css">
	.st0{fill:#008CC1;}
	.st1{fill:#50545D;}
	.st2{fill:#52555E;}
</style>
<g>
	<path class="st0" d="M574.67,79.04c-0.53,0-0.79-0.27-0.79-0.79c0-1.99,0.27-3.44,0.66-4.76c1.46-4.37,5.43-7.02,10.73-7.02
		s9.27,2.65,10.72,7.02c0.4,1.32,0.66,2.78,0.66,4.76c0,0.53-0.26,0.79-0.79,0.79H574.67z M586.06,119.29
		c11.79,0,21.19-4.24,27.28-10.73c0.53-0.53,0.53-1.32-0.14-1.85l-8.74-8.21c-0.53-0.67-1.19-0.53-1.85,0
		c-3.71,3.44-8.34,5.69-14.7,5.69c-6.62,0-11.52-2.91-13.24-8.48c-0.4-1.06-0.66-2.25-0.79-3.57c0-0.53,0.27-0.79,0.79-0.79h38.8
		c0.93,0,1.46-0.53,1.46-1.32c0-10.86-0.79-15.49-2.12-19.73c-3.7-11.25-13.51-18.01-27.67-18.01c-13.64,0-23.83,6.62-27.54,18.14
		c-1.32,3.97-2.12,8.61-2.12,15.36c0,6.62,0.93,11.25,2.25,15.23C561.43,112.53,571.5,119.29,586.06,119.29 M536.81,117.83
		c0.79,0,1.32-0.53,1.32-1.32V68.18c0-0.53,0.26-0.79,0.79-0.79h10.46c0.79,0,1.32-0.53,1.32-1.32V55.07c0-0.79-0.53-1.32-1.32-1.32
		h-10.46c-0.53,0-0.79-0.27-0.79-0.79v-3.18c0-5.43,1.45-6.88,7.28-6.88h4.11c0.79,0,1.32-0.53,1.32-1.32V29.12
		c0-0.8-0.53-1.32-1.32-1.32h-7.28c-15.22,0-22.51,6.49-22.51,22.11v3.05c0,0.53-0.27,0.79-0.79,0.79h-3.98
		c-0.79,0-1.32,0.53-1.32,1.32v10.99c0,0.79,0.53,1.32,1.32,1.32h3.98c0.53,0,0.79,0.26,0.79,0.79v48.33c0,0.79,0.53,1.32,1.32,1.32
		H536.81z M474.84,105.39c-6.09,0-9.27-2.25-9.27-6.75c0-5.03,3.57-7.28,11.39-7.28h9c0.53,0,0.79,0.26,0.79,0.79v4.37
		C486.76,102.47,482.79,105.39,474.84,105.39 M503.05,117.83c0.79,0,1.32-0.53,1.32-1.32V75.46c0-16.02-7.55-23.17-28.47-23.17
		c-10.59,0-18.4,2.51-23.83,6.35c-0.66,0.4-0.79,1.06-0.39,1.86l5.96,10.46c0.4,0.66,1.06,0.79,1.73,0.26
		c3.04-2.25,7.81-4.11,14.3-4.11c10.19,0,13.11,2.79,13.11,8.74v2.39c0,0.53-0.26,0.79-0.79,0.79h-11.39
		c-15.89,0-26.61,6.49-26.61,20.65c0,13.64,9.93,19.6,21.32,19.6c8.74,0,14.3-2.78,17.61-7.02h0.13v4.24c0,0.79,0.53,1.32,1.32,1.32
		H503.05z M405.86,119.29c23.3,0,35.35-12.05,35.35-28.33c0-16.29-9.8-24.76-28.34-27.28l-4.76-0.66
		c-10.33-1.45-14.04-4.76-14.04-9.93c0-5.69,4.1-9.79,12.05-9.79c7.42,0,14.03,2.38,20.92,6.88c0.67,0.4,1.32,0.27,1.85-0.4
		l8.08-12.05c0.66-0.93,0.53-1.46-0.27-1.99c-7.55-5.82-18.67-9.4-30.58-9.4c-19.46,0-31.91,10.99-31.91,27.54
		c0,15.89,10.19,24.5,28.47,27.01l4.77,0.66c10.72,1.46,13.9,4.77,13.9,10.06c0,6.36-5.29,10.73-14.69,10.73
		c-9.54,0-17.61-4.5-23.57-9.27c-0.66-0.53-1.45-0.53-1.99,0.14l-10.06,11.52c-0.66,0.79-0.4,1.72,0.13,2.25
		C378.19,113.73,391.82,119.29,405.86,119.29"/>
	<path class="st1" d="M359.92,117.83c0.79,0,1.32-0.53,1.32-1.32V55.07c0-0.79-0.53-1.32-1.32-1.32h-15.89
		c-0.8,0-1.32,0.53-1.32,1.32v61.44c0,0.79,0.53,1.32,1.32,1.32H359.92z M359.92,43.55c0.79,0,1.32-0.53,1.32-1.32V29.12
		c0-0.8-0.53-1.32-1.32-1.32h-15.89c-0.8,0-1.32,0.53-1.32,1.32v13.11c0,0.8,0.53,1.32,1.32,1.32H359.92z M332.38,118.63
		c0.79,0,1.32-0.53,1.32-1.32v-13.11c0-0.79-0.53-1.32-1.32-1.32h-2.78c-3.84,0-5.56-1.72-5.56-6.09V29.12
		c0-0.8-0.53-1.32-1.32-1.32h-15.89c-0.79,0-1.32,0.53-1.32,1.32v69.12c0,14.16,5.7,20.39,19.86,20.39H332.38z M265.65,103.66
		c-4.9,0-8.34-2.38-9.8-6.89c-0.79-2.51-1.19-5.29-1.19-10.99c0-5.69,0.4-8.47,1.19-10.99c1.45-4.64,4.9-6.88,9.8-6.88
		c5.03,0,8.47,2.25,9.93,6.88c0.79,2.52,1.19,5.3,1.19,10.99c0,5.7-0.4,8.48-1.19,10.99C274.12,101.28,270.67,103.66,265.65,103.66
		 M253.33,141.66c0.79,0,1.32-0.53,1.32-1.32v-28.47h0.13c2.91,4.36,8.34,7.41,16.82,7.41c10.72,0,18.41-5.3,21.71-15.36
		c1.59-5.03,2.26-9.93,2.26-18.14c0-8.34-0.66-13.11-2.26-18.14c-3.31-10.19-10.99-15.36-21.71-15.36c-8.47,0-13.9,3.05-16.82,7.42
		h-0.13v-4.64c0-0.79-0.53-1.32-1.32-1.32h-15.89c-0.79,0-1.33,0.53-1.33,1.32v85.27c0,0.79,0.54,1.32,1.33,1.32H253.33z
		 M221.95,117.83c0.79,0,1.32-0.53,1.32-1.32V76.12c0-14.17-7.81-23.83-22.91-23.83c-9.01,0-15.36,3.05-20.12,8.08h-0.13
		c-3.71-5.3-9.4-8.08-17.22-8.08c-8.21,0-13.63,3.31-16.55,7.28h-0.14v-4.5c0-0.79-0.53-1.32-1.32-1.32H129
		c-0.79,0-1.32,0.53-1.32,1.32v61.44c0,0.79,0.53,1.32,1.32,1.32h15.89c0.79,0,1.32-0.53,1.32-1.32V79.69
		c0-7.02,3.71-11.65,10.07-11.65c6.62,0,9.93,4.63,9.93,11.65v36.81c0,0.79,0.53,1.32,1.32,1.32h15.89c0.79,0,1.32-0.53,1.32-1.32
		V79.69c0-7.02,3.58-11.65,9.93-11.65c6.62,0,10.06,4.63,10.06,11.65v36.81c0,0.79,0.54,1.32,1.33,1.32H221.95z M112.98,117.83
		c0.79,0,1.32-0.53,1.32-1.32V55.07c0-0.79-0.53-1.32-1.32-1.32H97.09c-0.79,0-1.32,0.53-1.32,1.32v61.44
		c0,0.79,0.53,1.32,1.32,1.32H112.98z M112.98,43.55c0.79,0,1.32-0.53,1.32-1.32V29.12c0-0.8-0.53-1.32-1.32-1.32H97.09
		c-0.79,0-1.32,0.53-1.32,1.32v13.11c0,0.8,0.53,1.32,1.32,1.32H112.98z M50.88,119.29c23.3,0,35.35-12.05,35.35-28.33
		c0-16.29-9.79-24.76-28.33-27.28l-4.77-0.66c-10.33-1.45-14.04-4.76-14.04-9.93c0-5.69,4.11-9.79,12.05-9.79
		c7.41,0,14.03,2.38,20.92,6.88c0.66,0.4,1.32,0.27,1.85-0.4L82,37.72c0.66-0.93,0.53-1.46-0.27-1.99
		c-7.55-5.82-18.67-9.4-30.58-9.4c-19.46,0-31.91,10.99-31.91,27.54c0,15.89,10.19,24.5,28.47,27.01l4.77,0.66
		c10.73,1.46,13.9,4.77,13.9,10.06c0,6.36-5.29,10.73-14.69,10.73c-9.53,0-17.61-4.5-23.57-9.27c-0.66-0.53-1.45-0.53-1.98,0.14
		l-10.07,11.52c-0.66,0.79-0.39,1.72,0.13,2.25C23.21,113.73,36.85,119.29,50.88,119.29"/>
</g>
<g>
	<path class="st2" d="M624.75,57.46c0,2.14-1.68,3.82-3.86,3.82c-2.16,0-3.89-1.68-3.89-3.82c0-2.09,1.72-3.77,3.89-3.77
		C623.07,53.69,624.75,55.37,624.75,57.46z M617.97,57.46c0,1.68,1.24,3.01,2.94,3.01c1.66,0,2.88-1.33,2.88-2.99
		c0-1.68-1.22-3.04-2.9-3.04S617.97,55.8,617.97,57.46z M620.29,59.44h-0.87v-3.77c0.34-0.07,0.83-0.11,1.45-0.11
		c0.71,0,1.04,0.11,1.31,0.28c0.21,0.16,0.37,0.46,0.37,0.83c0,0.41-0.32,0.74-0.78,0.87v0.05c0.37,0.14,0.57,0.41,0.69,0.92
		c0.12,0.57,0.18,0.8,0.28,0.94h-0.94c-0.12-0.14-0.18-0.48-0.3-0.92c-0.07-0.41-0.3-0.6-0.78-0.6h-0.41V59.44z M620.31,57.3h0.41
		c0.48,0,0.87-0.16,0.87-0.55c0-0.34-0.25-0.58-0.8-0.58c-0.23,0-0.39,0.02-0.48,0.05V57.3z"/>
</g>
</svg>
